<?xml version="1.0" standalone="no"?>
<!DOCTYPE svg PUBLIC "-//W3C//DTD SVG 20010904//EN"
 "http://www.w3.org/TR/2001/REC-SVG-20010904/DTD/svg10.dtd">
<svg version="1.0" xmlns="http://www.w3.org/2000/svg"
 width="212.000000pt" height="212.000000pt" viewBox="0 0 212.000000 212.000000"
 preserveAspectRatio="xMidYMid meet">
<metadata>
Created by potrace 1.14, written by Peter Selinger 2001-2017
</metadata>
<g transform="translate(0.000000,212.000000) scale(0.100000,-0.100000)"
fill="#000000" stroke="none">
<path d="M1037 2024 c-3 -4 1 -17 9 -30 15 -21 14 -23 -3 -20 -26 5 -66 -12
-57 -25 3 -6 -5 -4 -19 6 -19 12 -27 13 -33 4 -4 -7 -3 -10 2 -7 5 3 15 0 22
-8 15 -16 4 -18 -32 -4 -35 13 -33 2 2 -12 24 -10 25 -12 7 -16 -11 -2 -24 -9
-30 -14 -7 -8 -6 -9 1 -5 7 4 15 0 18 -9 3 -8 2 -12 -4 -9 -6 3 -10 1 -10 -6
0 -8 -5 -7 -17 2 -15 13 -15 12 -4 -9 7 -12 17 -20 22 -16 6 3 5 -3 -3 -15 -7
-11 -19 -23 -27 -26 -10 -4 -9 0 4 15 26 29 11 25 -22 -7 -15 -14 -23 -23 -16
-20 6 4 18 4 27 1 15 -6 15 -8 1 -18 -8 -6 -17 -21 -20 -34 -7 -39 -17 -47
-32 -27 -7 11 -13 13 -13 7 0 -7 10 -22 21 -33 12 -12 15 -19 8 -17 -19 6 -41
-19 -35 -39 3 -10 1 -25 -5 -33 -8 -12 -9 -10 -4 7 3 12 1 25 -6 29 -8 4 -9 3
-5 -4 4 -6 -2 -20 -13 -31 -16 -16 -17 -20 -5 -25 10 -4 12 -2 8 6 -4 7 -3 8
4 4 13 -8 5 -36 -10 -36 -5 0 -6 -6 -2 -12 5 -9 2 -8 -10 1 -14 12 -19 12 -29
1 -8 -8 -8 -11 -1 -7 7 4 18 -1 25 -11 12 -15 12 -16 -1 -6 -8 5 -25 9 -37 8
-13 0 -23 3 -23 7 0 5 -5 9 -11 9 -5 0 -7 -5 -4 -10 3 -6 -1 -13 -9 -16 -9 -3
-14 -9 -12 -13 3 -4 -4 -7 -14 -7 -10 0 -17 3 -14 7 2 4 -3 9 -10 12 -8 3 -17
1 -20 -6 -3 -7 -3 1 -1 17 2 16 1 26 -2 22 -3 -3 -13 0 -21 6 -20 17 -52 20
-69 6 -11 -9 -13 -8 -11 3 2 8 -3 13 -12 11 -8 -2 -11 0 -7 5 5 4 13 8 18 8
14 0 6 19 -9 21 -6 1 -10 -2 -6 -7 3 -5 -2 -9 -11 -9 -12 0 -15 6 -10 23 5 19
5 20 -5 4 -6 -9 -16 -14 -22 -11 -6 4 -14 0 -19 -7 -6 -10 -8 -8 -6 8 1 18 4
20 22 12 18 -9 19 -9 3 4 -10 8 -14 18 -10 23 4 4 0 3 -9 -4 -13 -10 -19 -9
-32 6 -8 9 -15 20 -14 24 1 3 -2 10 -6 15 -5 4 -7 3 -5 -3 3 -11 -4 -16 -17
-13 -3 1 -11 2 -17 3 -7 1 -12 8 -10 16 3 11 0 11 -12 1 -11 -9 -20 -10 -35
-2 -17 9 -22 8 -31 -11 -10 -20 -9 -21 2 -7 12 15 17 15 38 4 13 -7 32 -11 42
-10 10 2 16 0 13 -6 -4 -5 -11 -7 -16 -4 -5 4 -9 0 -9 -7 0 -9 -3 -9 -10 2 -5
8 -10 11 -10 5 0 -5 -5 -3 -10 5 -8 12 -13 13 -29 3 -11 -7 -27 -10 -35 -7
-11 4 -14 0 -11 -15 2 -14 -1 -18 -11 -14 -7 3 -11 10 -7 17 3 6 -3 2 -15 -8
-24 -21 -31 -36 -7 -16 12 10 16 9 21 -4 3 -9 11 -13 18 -9 6 3 2 -3 -8 -15
-16 -18 -22 -20 -35 -9 -14 11 -14 10 -2 -5 7 -10 17 -15 22 -12 11 6 7 -25
-5 -45 -6 -9 0 -8 17 4 14 9 28 12 30 7 7 -10 3 -39 -6 -48 -3 -4 -4 6 -1 21
3 16 1 24 -6 20 -17 -11 -5 -50 16 -47 15 3 16 1 6 -11 -10 -12 -9 -16 4 -21
9 -3 21 -3 26 1 6 3 8 1 4 -5 -3 -5 0 -13 6 -16 7 -3 2 -3 -12 0 -24 6 -24 5
-5 -9 10 -8 26 -13 35 -10 13 4 13 4 0 -6 -13 -10 -8 -15 13 -12 4 0 7 -4 7
-9 0 -14 -11 -12 -29 4 -14 12 -18 12 -30 -1 -12 -13 -11 -14 7 -9 26 9 38
-10 15 -23 -23 -13 -8 -14 16 -1 14 7 23 5 35 -9 15 -16 15 -19 2 -24 -10 -4
-13 -1 -10 7 3 8 1 17 -5 20 -5 4 -8 -7 -7 -25 2 -23 9 -35 25 -41 35 -13 56
-37 42 -51 -14 -14 -15 -37 -1 -37 5 0 7 8 4 18 -5 14 -3 14 10 -2 19 -23 21
-40 4 -30 -6 4 -4 -3 5 -16 13 -19 14 -27 4 -39 -10 -14 -10 -14 5 -3 17 14
21 55 4 45 -5 -3 -6 -1 -2 6 11 18 39 -8 31 -28 -12 -28 -13 -61 -2 -68 6 -3
7 -1 3 5 -4 7 -1 12 8 12 18 0 20 -11 6 -28 -7 -9 -7 -9 2 -2 19 16 42 12 56
-10 7 -12 8 -20 2 -20 -5 0 -10 5 -10 11 0 5 -5 7 -12 3 -7 -5 -8 -3 -3 5 6
10 3 11 -14 2 -26 -14 -26 -16 0 -18 12 -1 24 -5 27 -8 9 -9 -20 -25 -33 -18
-5 4 -6 2 -2 -3 5 -5 16 -9 25 -9 10 0 16 -7 15 -18 -1 -18 0 -18 17 0 20 21
16 37 -9 28 -13 -5 -14 -4 -3 7 11 11 17 8 36 -13 16 -18 31 -25 49 -23 22 2
27 -2 28 -19 0 -21 1 -21 8 -3 9 22 20 10 16 -17 -2 -9 1 -15 6 -11 5 3 7 9 4
14 -3 5 -1 11 4 15 6 3 8 12 5 20 -4 10 0 12 17 8 13 -4 18 -8 11 -11 -15 -5
-16 -29 0 -38 7 -5 8 -3 3 5 -4 8 1 21 14 32 12 11 21 25 21 31 0 7 -6 4 -12
-5 -9 -11 -18 -14 -27 -8 -9 6 -10 11 -2 15 6 4 11 1 11 -6 0 -7 5 -5 12 6 10
18 11 18 27 -2 l16 -22 1 25 c1 15 -2 22 -9 18 -6 -4 -7 -1 -2 6 5 9 10 10 18
2 13 -13 30 -15 23 -2 -4 5 3 7 14 4 11 -3 20 -10 20 -17 0 -6 5 -3 11 6 5 10
16 15 25 11 13 -5 15 -1 10 15 -6 17 -3 19 14 15 17 -5 19 -8 8 -15 -8 -6 -5
-7 12 -2 23 6 24 6 10 -12 -14 -18 -14 -18 3 -5 20 16 19 18 -29 47 -17 10
-17 11 -1 11 9 0 17 -4 17 -8 0 -6 24 -16 60 -24 17 -4 40 13 40 29 0 6 -5 3
-11 -6 -5 -10 -15 -18 -21 -18 -6 0 -5 7 3 18 13 16 12 16 -6 0 -17 -13 -22
-14 -32 -3 -10 11 -9 14 5 13 9 0 27 3 39 5 13 3 25 2 28 -3 3 -5 13 -6 22 -3
11 5 14 3 8 -6 -6 -11 -3 -11 16 -1 17 10 24 10 27 1 2 -6 8 -11 14 -11 7 0 6
5 -1 14 -9 11 -9 16 0 22 15 9 41 -24 32 -40 -4 -6 1 -5 10 3 18 15 23 26 7
16 -5 -3 -10 -1 -10 4 0 15 15 14 29 -3 9 -11 9 -15 -1 -19 -7 -3 -3 -4 9 -4
21 1 22 3 7 24 -14 23 -14 23 6 11 11 -7 20 -16 20 -20 0 -5 5 -8 10 -8 7 0 7
7 0 23 -11 21 -10 21 4 3 9 -11 16 -16 16 -12 0 5 7 3 15 -4 8 -7 15 -18 15
-24 0 -6 -7 -2 -15 8 -8 11 -15 18 -16 15 0 -2 -2 -12 -4 -21 -2 -10 2 -21 7
-25 7 -3 8 -1 4 5 -10 16 7 15 23 -1 11 -9 13 -9 7 1 -4 6 -3 12 3 12 6 0 8 8
5 18 -4 12 -3 14 4 4 5 -8 8 -24 6 -38 -1 -13 2 -24 8 -24 6 0 7 8 4 17 -6 15
-5 15 13 -1 12 -11 21 -13 25 -7 5 7 15 6 32 -1 20 -10 27 -9 36 3 8 11 9 11
4 -3 -7 -23 10 -24 18 -2 4 9 9 14 12 11 8 -8 -21 -48 -29 -42 -4 3 -5 2 -2
-2 3 -3 -1 -13 -7 -22 -9 -12 -7 -12 7 1 18 17 20 17 39 0 21 -17 21 -17 3 4
-15 18 -16 22 -3 27 8 3 20 -2 28 -11 9 -11 9 -14 1 -8 -9 5 -11 2 -6 -10 5
-15 7 -15 15 0 7 12 14 14 27 7 12 -7 22 -6 31 2 12 10 12 9 2 -4 -11 -14 -9
-16 13 -16 14 0 25 4 25 9 0 5 -4 6 -10 3 -5 -3 -10 -2 -10 3 0 5 13 9 30 9
26 0 28 -2 12 -14 -15 -13 -14 -13 6 -3 19 9 21 14 11 26 -10 13 -6 18 14 15
4 0 7 5 7 12 0 7 7 4 15 -7 8 -11 15 -15 15 -9 0 7 -7 19 -16 27 -13 14 -13
16 -1 16 9 0 18 -6 20 -12 4 -10 6 -10 6 0 1 7 6 10 13 6 7 -4 8 -3 4 5 -4 6
-10 9 -14 7 -4 -2 -16 3 -27 11 -19 15 -19 15 4 8 16 -5 21 -4 17 4 -4 6 -1 9
7 5 8 -3 20 3 28 13 13 16 12 17 -4 4 -15 -12 -17 -12 -11 3 4 11 1 16 -12 17
-14 0 -15 2 -4 6 8 3 20 10 25 17 6 6 24 19 40 28 17 9 30 23 30 30 1 7 6 12
11 11 6 -1 10 13 9 32 -1 27 3 35 16 35 9 0 20 7 23 16 5 14 4 15 -9 4 -13
-11 -14 -10 -9 5 6 14 4 16 -7 10 -12 -8 -12 -6 0 8 13 17 15 17 35 0 12 -10
15 -11 9 -3 -15 16 -17 34 -4 25 5 -3 13 0 17 6 4 7 3 9 -4 5 -18 -11 -25 14
-9 32 15 17 17 21 17 45 0 7 3 8 8 2 4 -5 13 -11 21 -13 12 -3 12 -1 0 14 -8
10 -9 15 -3 11 14 -8 26 17 18 38 -4 8 -1 15 5 15 6 0 10 3 10 8 -3 20 3 23
19 11 9 -7 14 -10 10 -5 -4 5 -2 18 4 30 16 28 20 56 9 56 -6 0 -8 -9 -6 -19
2 -11 -3 -25 -10 -31 -11 -9 -14 -7 -12 9 1 12 4 21 8 21 3 0 6 12 5 28 -1 32
-25 61 -56 67 -12 2 -28 9 -36 15 -18 16 -34 4 -29 -23 4 -19 2 -20 -8 -7 -19
23 -53 21 -55 -4 -1 -17 1 -18 9 -6 8 12 10 12 7 1 -5 -17 -35 -23 -45 -9 -3
6 -2 8 3 5 6 -3 11 4 11 16 2 22 2 22 -10 2 -15 -25 -15 -38 -2 -48 5 -5 -1
-5 -14 -2 -18 6 -22 4 -16 -6 5 -8 5 -11 0 -7 -4 4 -17 3 -28 -3 -13 -7 -17
-7 -13 -1 3 6 2 13 -4 17 -5 3 -10 -1 -10 -9 0 -14 -18 -21 -42 -17 -4 0 -5
-5 -2 -13 3 -8 0 -17 -7 -22 -8 -4 -10 -3 -5 4 5 8 2 10 -8 6 -9 -3 -16 -1
-16 5 0 6 -5 11 -12 11 -6 0 -3 -9 7 -20 18 -20 18 -21 0 -14 -12 5 -16 4 -11
-4 3 -6 2 -13 -3 -17 -6 -3 -8 3 -6 15 2 11 0 22 -4 24 -4 3 -8 0 -9 -7 -2
-24 -8 -47 -15 -53 -3 -4 -5 3 -2 14 2 12 -1 24 -6 28 -5 3 -8 0 -7 -8 2 -7
-2 -12 -9 -11 -8 2 -10 -4 -6 -15 3 -9 3 -14 -2 -10 -4 4 -15 2 -23 -5 -13
-10 -14 -9 -3 11 7 13 10 26 7 30 -3 3 -6 -1 -6 -8 0 -9 -5 -7 -15 6 -11 13
-14 14 -13 4 2 -8 7 -18 12 -21 4 -4 3 -10 -3 -13 -6 -4 -11 -3 -11 3 0 5 -9
8 -19 6 -15 -3 -18 0 -14 13 6 14 4 15 -8 5 -16 -13 -16 -13 -20 35 -2 22 -29
62 -29 43 0 -8 -3 -11 -7 -8 -3 4 1 15 10 24 13 15 13 21 2 36 -7 10 -21 17
-31 15 -12 -2 -18 5 -21 24 -3 23 0 27 14 22 10 -2 7 1 -7 8 -14 7 -29 18 -33
25 -5 8 -13 10 -19 7 -7 -4 -8 -2 -4 4 5 9 14 7 32 -4 22 -15 24 -15 18 0 -3
9 -11 16 -18 16 -6 0 -4 5 4 10 12 8 10 10 -10 8 -16 -2 -25 2 -25 12 -1 8 -6
14 -13 13 -7 -2 -12 1 -12 6 0 12 30 22 42 14 7 -4 8 -1 3 6 -4 7 -16 11 -26
8 -10 -3 -23 1 -29 8 -15 18 -23 65 -11 65 6 0 8 -9 6 -20 -2 -11 0 -18 5 -15
6 3 7 0 4 -8 -3 -8 -1 -18 4 -21 16 -10 22 22 6 35 -12 10 -12 13 2 24 14 10
10 11 -24 11 -22 -1 -40 4 -39 9 1 6 -7 9 -18 8 -11 -1 -15 0 -8 3 10 4 10 10
0 24 -11 18 -12 18 -31 2 -18 -16 -18 -16 -8 4 7 14 7 25 0 35 -8 11 -9 11 -5
-3 8 -24 -17 -30 -36 -8 -8 10 -13 21 -10 24 4 3 4 6 1 6 -2 0 -7 -3 -11 -6z
m813 -359 c0 -8 -2 -15 -4 -15 -2 0 -6 7 -10 15 -3 8 -1 15 4 15 6 0 10 -7 10
-15z m-1478 -23 c7 -7 8 -12 3 -12 -6 0 -3 -5 5 -10 9 -6 10 -10 3 -10 -6 0
-18 7 -26 15 -8 8 -17 12 -19 10 -3 -3 -5 1 -5 9 0 16 22 15 39 -2z m973 -10
c-3 -3 -12 -7 -19 -8 -12 -2 -13 4 -7 35 1 2 8 -2 16 -9 9 -7 13 -15 10 -18z
m453 3 c-3 -3 -9 2 -12 12 -6 14 -5 15 5 6 7 -7 10 -15 7 -18z m-755 -51 c-4
-10 -1 -15 8 -14 26 4 39 0 39 -11 0 -8 -5 -8 -15 1 -12 10 -15 10 -15 -1 0
-10 -4 -9 -16 3 -9 9 -13 21 -10 27 10 16 16 13 9 -5z m-844 -18 c9 -10 8 -15
-2 -19 -8 -3 -13 3 -13 14 0 23 0 23 15 5z m1155 -1 c-4 -8 -11 -12 -16 -9 -6
4 -5 10 3 15 19 12 19 11 13 -6z m296 1 c0 -2 -7 -7 -16 -10 -8 -3 -12 -2 -9
4 6 10 25 14 25 6z m-1078 -32 c8 -17 8 -17 -4 -3 -7 9 -19 14 -25 12 -7 -3
-13 0 -13 5 0 17 32 7 42 -14z m498 12 c8 1 17 3 20 4 25 9 36 5 37 -13 1 -12
-2 -26 -7 -32 -6 -7 -2 -11 13 -12 15 -2 18 0 8 6 -9 6 -10 11 -2 15 6 4 11 2
11 -4 0 -6 4 -9 8 -6 5 3 9 -1 9 -9 0 -8 -4 -12 -9 -9 -4 3 -8 1 -8 -5 0 -5 9
-12 20 -16 11 -3 19 -12 17 -18 -1 -7 4 -11 11 -9 8 1 11 -2 7 -8 -4 -7 -12
-7 -25 0 -13 7 -21 5 -31 -8 -12 -15 -12 -16 2 -5 23 18 32 4 14 -23 -11 -17
-12 -25 -3 -30 7 -5 8 -3 3 6 -5 9 -4 11 4 6 6 -4 11 -4 10 1 -4 26 1 34 15
21 11 -11 11 -15 -5 -26 -11 -7 -17 -17 -14 -22 3 -4 -3 -7 -13 -6 -9 0 -16
-4 -15 -11 3 -13 -22 -12 -34 2 -4 4 -2 5 6 0 10 -6 12 -4 6 5 -5 8 -4 11 3 6
6 -3 14 -2 17 4 4 6 1 9 -7 8 -7 -2 -12 3 -10 10 1 8 -2 11 -8 7 -6 -3 -8 -10
-5 -15 11 -18 -34 -33 -48 -15 -5 6 -7 4 -4 -5 2 -8 14 -14 25 -14 12 1 22 -2
22 -6 0 -12 -60 -7 -61 5 -1 5 -1 16 0 23 1 6 -2 12 -7 12 -5 0 -9 -10 -8 -21
1 -16 -6 -23 -24 -25 -21 -3 -22 -2 -7 7 9 5 17 15 17 20 0 6 -5 7 -10 4 -6
-3 -14 4 -19 17 -6 14 -10 17 -10 8 -1 -9 4 -21 10 -27 7 -7 6 -12 -6 -17 -10
-3 -14 -2 -9 5 7 11 -30 52 -39 43 -3 -3 -4 6 -3 21 2 14 9 32 16 38 10 9 11
9 6 0 -3 -6 -3 -14 2 -17 4 -2 8 4 9 13 1 10 -8 24 -20 30 -12 7 -14 9 -4 7
15 -5 22 5 18 27 -1 5 3 5 9 2 6 -4 9 -14 6 -24 -4 -11 -2 -10 9 4 14 18 14
21 -2 32 -10 8 -12 13 -4 13 7 0 9 5 5 12 -4 6 -3 8 3 5 6 -4 16 0 23 8 7 9
18 12 29 7 9 -4 23 -7 31 -6z m-330 -43 c3 -3 -4 -4 -15 -2 -11 2 -26 0 -33
-5 -16 -9 -27 -2 -18 13 6 9 55 5 66 -6z m-20 -17 c0 -3 -4 -8 -10 -11 -5 -3
-10 -1 -10 4 0 6 5 11 10 11 6 0 10 -2 10 -4z m213 -51 c-3 -9 -8 -14 -10 -11
-3 3 -2 9 2 15 9 16 15 13 8 -4z m-590 -138 c-2 -4 -5 -7 -8 -7 -3 0 -12 0
-21 0 -8 0 -13 4 -10 9 7 10 42 8 39 -2z m1227 -9 c0 -7 -4 -19 -9 -26 -7 -11
-9 -10 -14 3 -5 11 -3 14 5 9 8 -5 9 -2 5 9 -3 10 -2 17 3 17 6 0 10 -6 10
-12z m-1000 -2 c0 -3 -4 -8 -10 -11 -5 -3 -10 -1 -10 4 0 6 5 11 10 11 6 0 10
-2 10 -4z m-24 -28 c5 -7 3 -8 -6 -3 -10 6 -12 4 -6 -11 5 -14 4 -16 -5 -7 -6
6 -8 16 -5 22 9 14 13 14 22 -1z m39 2 c-3 -5 -11 -10 -16 -10 -6 0 -7 5 -4
10 3 6 11 10 16 10 6 0 7 -4 4 -10z m996 -17 c-8 -15 -10 -15 -11 -2 0 17 10
32 18 25 2 -3 -1 -13 -7 -23z m-974 2 c0 -8 -4 -15 -9 -15 -10 0 -11 14 -1 23
9 10 10 9 10 -8z m943 -5 c8 -5 11 -10 5 -10 -5 0 -17 5 -25 10 -8 5 -10 10
-5 10 6 0 17 -5 25 -10z m226 -4 c-1 -8 -7 -20 -14 -28 -6 -8 -9 -18 -5 -22 4
-4 -1 -4 -11 0 -13 5 -17 4 -12 -4 3 -6 1 -14 -5 -18 -8 -4 -9 -3 -5 4 4 7 1
12 -6 12 -8 0 -6 5 5 11 9 6 15 14 12 19 -3 5 5 16 17 24 27 19 27 19 24 2z
m-1196 -11 c9 -10 9 -15 1 -15 -6 0 -11 5 -11 11 0 5 -4 7 -10 4 -5 -3 -10 -1
-10 4 0 16 16 13 30 -4z m1011 -8 c-10 -9 -11 -8 -5 6 3 10 9 15 12 12 3 -3 0
-11 -7 -18z m-1193 -12 c-3 -3 -9 2 -12 12 -6 14 -5 15 5 6 7 -7 10 -15 7 -18z
m152 -5 c0 -5 -2 -10 -4 -10 -3 0 -8 5 -11 10 -3 6 -1 10 4 10 6 0 11 -4 11
-10z m-95 -81 c-4 -13 -3 -19 2 -16 5 4 10 0 10 -8 0 -11 -5 -10 -24 2 -21 14
-24 41 -2 28 5 -4 9 -1 9 4 0 6 3 11 6 11 3 0 2 -10 -1 -21z m578 -11 c-2 -5
1 -8 6 -8 6 0 11 5 11 11 0 5 5 7 11 4 6 -4 8 -10 5 -13 -9 -8 -66 -10 -61 -1
3 4 -1 9 -7 12 -7 2 -1 4 14 3 14 0 24 -4 21 -8z m302 -62 c8 4 15 1 15 -7 0
-7 -3 -9 -7 -6 -3 4 -12 2 -18 -3 -15 -13 -40 14 -29 31 5 8 9 7 16 -4 5 -9
15 -14 23 -11z m-488 -1 c4 -5 3 -7 -2 -3 -4 4 -15 2 -23 -5 -11 -8 -14 -8 -9
0 5 7 -1 13 -15 16 -14 3 -10 4 10 4 19 -1 36 -6 39 -12z m638 -53 c-3 -3 -11
0 -18 7 -9 10 -8 11 6 5 10 -3 15 -9 12 -12z"/>
<path d="M1004 1528 c-12 -14 -13 -18 -3 -10 9 6 18 10 21 7 2 -3 5 2 5 10 0
19 0 19 -23 -7z"/>
<path d="M1096 1542 c-2 -4 -1 -14 3 -21 6 -10 10 -9 14 3 6 16 -8 32 -17 18z"/>
<path d="M1010 1499 c0 -5 5 -7 10 -4 6 3 10 8 10 11 0 2 -4 4 -10 4 -5 0 -10
-5 -10 -11z"/>
<path d="M941 1404 c-1 -6 7 -18 16 -25 9 -8 14 -9 10 -2 -4 6 -4 13 0 16 5 2
3 2 -4 1 -6 -2 -14 2 -17 9 -3 8 -5 8 -5 1z"/>
<path d="M1745 1220 c-3 -5 -2 -10 4 -10 5 0 13 5 16 10 3 6 2 10 -4 10 -5 0
-13 -4 -16 -10z"/>
<path d="M1110 2021 c0 -6 4 -12 8 -15 5 -3 9 1 9 9 0 8 -4 15 -9 15 -4 0 -8
-4 -8 -9z"/>
<path d="M987 1991 c-4 -15 -10 -20 -18 -15 -8 4 -10 3 -5 -4 5 -9 14 -7 31 4
14 9 30 12 37 8 9 -6 9 -3 -1 10 -10 12 -16 14 -21 5 -6 -8 -9 -8 -12 2 -3 8
-7 4 -11 -10z"/>
<path d="M1150 2000 c0 -5 5 -10 11 -10 5 0 7 5 4 10 -3 6 -8 10 -11 10 -2 0
-4 -4 -4 -10z"/>
<path d="M1155 1960 c10 -11 23 -20 28 -20 6 0 0 9 -13 20 -13 11 -25 20 -28
20 -3 0 3 -9 13 -20z"/>
<path d="M1248 1817 c7 -8 8 -18 4 -22 -4 -5 -1 -5 6 -1 17 10 15 23 -4 30
-13 5 -14 4 -6 -7z"/>
<path d="M855 1780 c-4 -6 -11 -8 -16 -5 -5 4 -6 -2 -2 -12 6 -16 5 -17 -12
-3 -17 14 -17 14 -4 -7 8 -13 18 -23 23 -23 5 0 6 3 3 7 -4 3 0 17 8 30 9 13
13 23 11 23 -3 0 -8 -5 -11 -10z"/>
<path d="M1912 1701 c-11 -7 -11 -9 0 -14 9 -3 15 1 15 9 0 8 -1 14 -1 14 -1
0 -7 -4 -14 -9z"/>
<path d="M795 1689 c-10 -15 3 -25 16 -12 7 7 7 13 1 17 -6 3 -14 1 -17 -5z"/>
<path d="M1303 1683 c0 -9 4 -10 14 -2 7 6 13 12 13 14 0 1 -6 2 -13 2 -8 0
-14 -6 -14 -14z"/>
<path d="M177 1671 c-10 -14 -10 -14 4 -4 9 7 18 10 21 7 3 -3 8 -1 12 4 9 16
-24 9 -37 -7z"/>
<path d="M1920 1666 c0 -2 7 -9 15 -16 9 -7 15 -8 15 -2 0 5 -7 12 -15 16 -8
3 -15 4 -15 2z"/>
<path d="M755 1620 c-3 -5 -1 -10 4 -10 6 0 11 5 11 10 0 6 -2 10 -4 10 -3 0
-8 -4 -11 -10z"/>
<path d="M1670 1623 c0 -19 17 -24 30 -8 9 10 9 15 1 15 -6 0 -11 -6 -11 -12
0 -9 -4 -8 -10 2 -6 9 -10 10 -10 3z"/>
<path d="M1615 1600 c-3 -5 -1 -10 4 -10 6 0 11 5 11 10 0 6 -2 10 -4 10 -3 0
-8 -4 -11 -10z"/>
<path d="M730 1565 c0 -7 30 -13 34 -7 3 4 -4 9 -15 9 -10 1 -19 0 -19 -2z"/>
<path d="M1376 1562 c-2 -4 -1 -14 5 -22 5 -8 9 -10 9 -5 0 6 7 2 15 -9 13
-18 14 -18 12 2 0 11 -4 20 -7 20 -19 -2 -30 3 -25 12 3 6 4 10 1 10 -3 0 -7
-4 -10 -8z"/>
<path d="M610 1529 c0 -5 5 -7 10 -4 6 3 10 8 10 11 0 2 -4 4 -10 4 -5 0 -10
-5 -10 -11z"/>
<path d="M640 1520 c-9 -6 -10 -10 -3 -10 6 0 15 5 18 10 8 12 4 12 -15 0z"/>
<path d="M1920 1480 c-9 -6 -10 -10 -3 -10 6 0 15 5 18 10 8 12 4 12 -15 0z"/>
<path d="M1915 1439 c-4 -6 -5 -12 -2 -15 2 -3 7 2 10 11 7 17 1 20 -8 4z"/>
<path d="M1863 1404 c4 -4 0 -15 -8 -24 -13 -14 -12 -16 5 -16 10 0 16 4 13 9
-3 5 0 13 7 17 8 5 7 9 -6 14 -10 4 -15 4 -11 0z"/>
<path d="M328 1253 c6 -2 10 -8 8 -12 -3 -4 1 -8 9 -8 11 0 12 4 4 14 -6 7
-17 13 -23 12 -7 0 -6 -2 2 -6z"/>
<path d="M1699 1123 c-7 -10 -9 -15 -5 -11 5 4 14 4 20 -2 8 -6 12 -3 13 11 2
24 -10 25 -28 2z"/>
<path d="M1695 1061 c-3 -5 -2 -12 3 -15 5 -3 9 1 9 9 0 17 -3 19 -12 6z"/>
<path d="M775 1010 c-4 -6 -12 -7 -18 -4 -7 4 -6 1 2 -7 10 -11 15 -11 18 -1
3 6 10 9 15 6 7 -4 8 -2 4 4 -9 15 -13 15 -21 2z"/>
<path d="M826 1003 c-6 -14 -5 -15 5 -6 7 7 10 15 7 18 -3 3 -9 -2 -12 -12z"/>
<path d="M519 969 c-6 -13 -7 -19 -1 -15 6 3 13 0 15 -6 4 -10 6 -10 6 0 1 7
5 11 10 7 5 -3 12 -1 16 4 3 6 -4 8 -16 6 -15 -3 -19 0 -15 10 8 22 -2 18 -15
-6z"/>
<path d="M580 955 c-7 -9 -8 -15 -2 -15 5 0 12 7 16 15 3 8 4 15 2 15 -2 0 -9
-7 -16 -15z"/>
<path d="M1486 955 c4 -8 11 -15 16 -15 6 0 5 6 -2 15 -7 8 -14 15 -16 15 -2
0 -1 -7 2 -15z"/>
<path d="M930 819 c0 -5 5 -7 10 -4 6 3 10 8 10 11 0 2 -4 4 -10 4 -5 0 -10
-5 -10 -11z"/>
<path d="M898 805 c6 -11 10 -23 11 -27 2 -13 15 -4 18 10 1 8 -1 11 -4 8 -3
-3 -12 2 -20 12 -13 16 -13 15 -5 -3z"/>
<path d="M810 800 c0 -5 5 -10 11 -10 5 0 7 5 4 10 -3 6 -8 10 -11 10 -2 0 -4
-4 -4 -10z"/>
<path d="M845 800 c-3 -5 -1 -10 4 -10 6 0 11 5 11 10 0 6 -2 10 -4 10 -3 0
-8 -4 -11 -10z"/>
<path d="M1375 800 c-3 -5 -1 -10 4 -10 6 0 11 5 11 10 0 6 -2 10 -4 10 -3 0
-8 -4 -11 -10z"/>
<path d="M790 793 c0 -6 4 -15 10 -18 6 -4 5 -13 -2 -25 -9 -14 -14 -16 -20
-7 -4 7 -8 17 -8 22 0 6 5 3 10 -5 5 -8 10 -10 10 -5 0 6 -5 17 -10 25 -6 10
-10 11 -10 3 0 -15 -21 -13 -32 2 -5 6 -8 5 -8 -4 0 -11 -3 -11 -17 0 -11 10
-14 10 -9 2 4 -7 2 -13 -3 -13 -6 0 -11 -7 -11 -16 0 -10 -6 -14 -15 -11 -8 4
-17 2 -20 -4 -4 -5 -11 -7 -16 -4 -8 6 -13 -8 -10 -27 0 -4 -7 -4 -16 -1 -12
5 -14 3 -8 -8 7 -12 6 -12 -7 -1 -14 11 -18 10 -27 -6 -7 -12 -7 -22 0 -29 6
-6 5 -10 -5 -10 -8 0 -13 4 -10 8 2 4 -2 10 -8 12 -10 4 -10 6 -1 6 7 1 10 8
6 18 -4 10 -2 14 5 9 6 -3 13 -2 17 4 4 6 10 8 14 6 4 -3 13 0 21 6 12 8 12 9
-3 4 -10 -3 -20 0 -23 7 -4 11 -55 15 -74 7 -3 -1 -8 -2 -12 -1 -4 0 -5 -7 -2
-17 5 -14 4 -15 -5 -2 -8 11 -7 18 4 26 19 14 19 21 0 21 -8 0 -11 -5 -8 -10
4 -6 -1 -8 -11 -4 -9 4 -14 3 -11 -2 3 -5 -4 -13 -16 -16 -13 -4 -18 -12 -15
-21 3 -9 1 -12 -4 -9 -6 3 -10 1 -10 -4 0 -6 -5 -11 -10 -11 -6 0 -3 11 5 24
12 18 13 26 4 32 -8 4 -9 3 -5 -4 4 -7 3 -12 -3 -12 -5 0 -12 6 -14 13 -4 9
-6 9 -6 0 -1 -6 4 -15 9 -18 15 -9 -8 -35 -25 -29 -7 3 -16 1 -20 -5 -4 -7 0
-8 11 -4 11 4 15 3 10 -5 -3 -6 -1 -14 5 -18 8 -5 9 -3 4 6 -6 9 -4 11 5 5 9
-6 11 -4 5 5 -6 9 -4 11 4 5 10 -6 9 -11 -3 -23 -13 -13 -17 -13 -32 -1 -16
13 -16 12 -4 -8 11 -17 18 -20 34 -12 21 10 21 10 1 -6 -11 -9 -19 -21 -17
-26 1 -6 -2 -8 -8 -4 -5 3 -10 -1 -10 -10 0 -10 5 -13 13 -9 9 6 9 5 0 -8 -7
-8 -10 -18 -6 -21 3 -4 1 -7 -6 -7 -8 0 -11 6 -7 16 3 8 2 12 -4 9 -14 -9 -12
7 4 30 12 17 11 22 -2 35 -14 13 -15 12 -9 -3 9 -24 -13 -72 -25 -55 -7 10 -8
9 -5 -2 2 -8 10 -14 16 -12 12 2 15 -14 4 -21 -5 -2 -3 -2 4 -1 7 2 15 -1 18
-6 4 -6 -1 -10 -9 -10 -9 0 -16 -5 -16 -11 0 -5 4 -7 10 -4 5 3 7 0 4 -9 -8
-21 6 -42 16 -25 7 10 11 10 24 0 9 -8 16 -10 16 -5 0 5 5 2 11 -6 9 -13 10
-13 6 0 -2 8 -9 14 -15 13 -17 -4 -25 36 -11 53 8 10 15 11 24 4 8 -7 15 -7
19 -1 3 5 0 11 -6 14 -7 2 -10 7 -7 11 3 3 16 -4 29 -17 14 -12 26 -21 28 -19
8 9 25 -6 18 -16 -11 -18 -26 -14 -20 6 5 13 4 14 -4 3 -5 -7 -12 -9 -14 -5
-3 5 -3 4 -2 -3 2 -6 -2 -14 -9 -16 -7 -3 -1 -5 13 -4 14 0 31 5 38 10 15 12
16 2 2 -24 -8 -15 -7 -21 4 -25 12 -5 13 -10 4 -24 -9 -14 -16 -16 -29 -9 -11
6 -20 5 -24 -1 -3 -5 -11 -10 -17 -10 -6 0 -3 10 8 23 17 20 16 20 -9 -2 -15
-14 -30 -21 -34 -17 -4 4 -1 11 6 15 8 5 9 11 4 14 -6 4 -15 -5 -22 -19 -9
-20 -9 -24 1 -18 7 4 10 4 6 -1 -4 -4 -2 -15 5 -23 9 -12 6 -12 -14 1 -14 10
-29 14 -32 10 -4 -3 -7 -1 -7 5 0 7 4 12 10 12 16 0 33 41 22 52 -6 6 -12 5
-17 -3 -5 -8 -4 -10 3 -5 7 4 12 4 12 -1 0 -11 -20 -40 -20 -29 0 5 -13 -7
-29 -27 -15 -20 -32 -33 -36 -29 -5 4 -5 1 -1 -6 4 -7 12 -10 17 -7 5 3 6 -2
2 -11 -5 -13 -3 -15 7 -9 9 6 11 4 6 -4 -6 -9 -12 -9 -25 3 -10 9 -22 16 -27
16 -5 0 -1 -5 9 -11 14 -8 15 -14 7 -24 -8 -10 -7 -13 7 -11 13 1 17 -5 15
-21 -2 -13 2 -24 10 -25 7 0 18 -2 23 -3 6 -2 16 -3 23 -4 6 0 12 -5 12 -10 0
-6 -9 -8 -20 -5 -11 2 -29 6 -40 8 -11 3 -22 1 -25 -3 -2 -5 3 -8 13 -8 42 0
48 -3 32 -13 -12 -8 -9 -9 10 -6 14 2 34 8 44 12 13 5 17 4 12 -4 -5 -8 -2
-10 8 -6 12 5 13 11 5 27 -9 20 -9 20 4 5 8 -10 17 -14 21 -10 4 4 6 1 4 -7
-1 -7 3 -16 10 -18 7 -3 11 1 10 8 -3 15 34 20 54 7 8 -5 0 -7 -22 -4 -19 3
-29 3 -22 0 10 -5 10 -9 0 -22 -12 -15 -11 -16 6 -2 24 19 68 19 84 0 11 -13
11 -13 6 2 -4 12 -1 16 13 13 10 -1 17 -9 15 -16 -2 -9 3 -7 16 5 19 17 21 17
32 -1 10 -16 11 -16 6 0 -3 9 -1 17 5 17 6 0 6 8 -1 23 -11 21 -10 21 4 3 9
-10 13 -23 10 -27 -3 -5 2 -6 10 -3 9 3 14 10 11 14 -3 5 0 12 6 16 8 4 9 3 5
-4 -10 -17 5 -15 25 4 16 14 17 14 15 -3 -2 -10 -9 -18 -16 -18 -17 0 -24 -21
-11 -30 7 -4 8 0 4 11 -4 11 -3 15 5 10 6 -3 13 -2 16 2 7 12 66 13 66 1 0 -5
5 -9 11 -9 8 0 9 4 0 13 -6 8 -8 16 -5 20 8 8 -18 3 -33 -6 -6 -4 -14 -3 -18
3 -6 10 -5 11 15 14 6 0 15 8 20 16 7 11 10 11 10 2 0 -7 4 -11 8 -8 4 2 14 1
22 -5 10 -6 11 -9 3 -9 -7 0 -13 -5 -13 -10 0 -7 8 -7 22 1 l21 11 -24 20
c-13 11 -18 17 -11 13 6 -3 12 0 13 7 0 7 5 2 11 -12 6 -14 10 -28 10 -32 -1
-5 2 -8 8 -8 5 0 10 6 10 13 0 7 5 5 10 -5 6 -10 19 -15 32 -13 11 3 18 1 14
-2 -11 -11 -56 -11 -49 0 3 6 1 7 -5 3 -8 -5 -9 -13 -2 -25 5 -10 6 -22 2 -26
-4 -5 -2 -5 5 -1 7 4 10 13 7 21 -4 10 1 13 19 9 19 -3 30 2 41 18 19 26 21
17 5 -15 l-12 -22 23 20 c13 11 20 15 17 9 -8 -15 18 -38 33 -29 6 3 7 11 4
17 -5 7 -1 9 9 5 21 -8 49 2 41 15 -3 5 -11 5 -19 -2 -9 -8 -15 -8 -20 0 -3 5
-4 11 -1 11 22 5 33 4 44 -4 7 -6 17 -5 26 2 10 8 16 8 25 -3 9 -11 8 -15 -4
-20 -8 -3 -21 -3 -29 0 -8 3 -17 1 -21 -5 -4 -7 0 -8 11 -4 10 4 15 2 11 -4
-3 -5 0 -10 8 -10 8 0 15 4 15 9 0 4 5 8 11 8 5 0 7 -6 3 -12 -4 -8 -3 -10 2
-5 5 5 9 14 9 19 0 6 6 13 14 16 8 3 11 1 8 -4 -2 -5 2 -16 11 -24 14 -13 15
-12 9 2 -4 12 0 19 14 23 10 4 17 11 14 16 -4 5 2 6 11 2 11 -4 13 -8 6 -11
-7 -2 -9 -8 -6 -14 4 -5 15 -1 28 11 17 16 23 18 23 7 0 -8 -4 -13 -8 -11 -8
6 -22 -25 -14 -33 3 -3 5 0 5 7 0 8 6 11 16 7 8 -3 12 -2 9 4 -8 13 1 13 24 1
13 -7 18 -6 18 3 0 7 -7 13 -15 12 -8 0 -17 6 -19 14 -4 13 -3 13 6 0 9 -13
12 -13 20 -1 7 11 10 9 15 -7 5 -13 13 -19 22 -15 10 4 13 0 8 -13 -5 -18 -5
-18 6 -1 6 9 16 15 21 12 5 -4 6 -11 3 -17 -4 -7 -2 -8 4 -4 9 5 9 13 2 26 -8
16 -8 18 5 14 9 -4 15 -1 15 7 0 10 3 10 12 1 18 -18 32 -14 17 5 -12 15 -12
16 1 8 8 -5 25 -10 38 -11 12 0 25 -4 29 -7 3 -4 13 -1 21 6 9 6 13 7 10 2 -4
-6 2 -16 13 -23 21 -14 24 -9 9 18 -7 13 -7 21 0 25 6 4 10 3 9 -2 -3 -19 2
-33 12 -33 5 0 8 4 5 8 -2 4 11 8 30 8 22 0 30 -4 24 -10 -6 -6 -10 -14 -10
-20 0 -6 5 -5 12 2 17 17 33 15 18 -3 -7 -9 -10 -18 -6 -22 3 -3 6 -1 6 7 0
10 4 10 18 -1 15 -12 16 -12 4 2 -11 14 -9 17 13 16 22 0 24 -2 13 -16 -7 -9
2 -4 20 11 18 15 39 25 47 22 8 -4 15 -1 15 6 0 6 5 8 12 4 7 -4 8 -3 4 5 -12
18 -18 69 -7 51 5 -8 8 -17 5 -21 -2 -4 0 -10 5 -13 5 -3 7 11 4 32 -3 27 -1
33 6 22 6 -8 11 -10 11 -5 0 18 -30 55 -45 55 -8 0 -17 5 -21 12 -5 7 -3 8 7
3 11 -7 11 -5 -1 10 -8 10 -13 21 -10 24 3 3 -3 7 -12 9 -10 2 -19 -2 -20 -10
0 -7 -2 -20 -2 -28 -1 -8 -8 -13 -16 -11 -8 2 -26 5 -40 6 -14 1 -29 4 -35 5
-22 5 -27 -1 -14 -17 12 -16 12 -17 -1 -7 -8 6 -23 10 -32 9 -15 -3 -16 0 -8
16 8 14 7 19 -2 19 -8 1 -5 7 7 17 16 13 17 15 3 10 -21 -7 -22 -3 -7 25 13
25 5 35 -16 18 -10 -8 -15 -9 -15 -1 0 6 5 11 11 11 5 0 8 4 4 9 -3 5 -1 12 5
16 6 4 7 11 4 17 -4 6 -2 8 4 4 6 -3 13 -2 17 4 3 5 12 10 18 10 8 0 8 -3 2
-8 -15 -11 -17 -52 -2 -52 26 0 53 32 32 38 -5 1 -10 -3 -10 -10 0 -6 -6 -13
-13 -16 -10 -3 -10 2 -1 22 12 24 37 42 47 31 3 -3 0 -5 -8 -5 -10 0 -10 -3
-1 -14 9 -10 9 -20 2 -34 -5 -10 -8 -27 -7 -38 2 -10 -2 -23 -8 -27 -7 -6 -6
-7 4 -5 8 3 15 17 15 34 1 16 7 40 14 53 11 19 11 22 -1 15 -10 -6 -11 -5 -1
7 10 12 10 18 0 30 -6 7 0 3 15 -10 16 -14 26 -26 24 -29 -3 -2 7 -15 20 -27
24 -22 54 -24 54 -3 0 5 -4 6 -10 3 -14 -9 -12 21 2 45 10 16 10 23 -4 37 -16
15 -16 17 0 30 16 12 15 13 -3 7 -20 -6 -20 -5 -1 10 11 9 16 16 11 16 -5 0
-16 -7 -26 -16 -22 -20 -39 -11 -32 16 3 11 9 17 15 14 5 -3 4 -13 -4 -22 -12
-15 -11 -16 5 -3 17 13 17 15 -1 35 -11 12 -19 33 -18 48 2 30 -9 29 -17 -2
-3 -13 -1 -18 6 -13 7 3 9 3 5 -2 -4 -4 -3 -14 3 -22 9 -9 8 -13 0 -13 -6 0
-11 5 -11 11 0 5 -5 7 -10 4 -6 -4 -9 -3 -8 2 3 10 -21 53 -41 73 -13 13 -14
13 -8 -2 4 -12 0 -19 -14 -23 -12 -4 -18 -13 -15 -20 3 -9 0 -12 -10 -8 -11 4
-12 9 -4 18 7 9 7 15 1 19 -5 4 -12 2 -16 -4 -3 -5 -3 -10 2 -10 4 0 1 -4 -7
-9 -18 -12 -36 -1 -19 11 11 8 11 9 -1 5 -8 -2 -14 -10 -12 -17 1 -6 -3 -10
-10 -7 -7 2 -12 13 -10 23 3 19 3 19 -11 0 -14 -19 -14 -19 -25 0 -9 16 -13
17 -24 5 -11 -12 -11 -13 1 -6 10 6 12 4 6 -5 -6 -9 -4 -11 5 -5 9 6 11 4 5
-5 -5 -8 -4 -11 3 -6 6 3 13 2 16 -3 4 -5 16 -8 29 -7 19 2 23 -2 22 -25 0
-15 -4 -25 -8 -22 -5 3 -6 12 -3 20 4 10 2 13 -8 10 -7 -3 -19 0 -25 6 -8 8
-11 8 -11 -1 0 -6 8 -16 18 -21 9 -6 12 -11 6 -11 -6 0 -25 18 -43 40 -17 22
-35 39 -39 39 -4 -1 -14 -1 -22 0 -13 1 -13 2 0 11 13 9 13 11 1 19 -8 5 -21
7 -29 3 -11 -4 -13 -1 -7 8 5 9 4 11 -3 6 -7 -4 -12 -14 -12 -22 0 -8 -5 -14
-11 -14 -5 0 -8 4 -5 9 3 5 -2 15 -12 22 -15 12 -16 12 -4 -2 10 -13 10 -18 0
-26 -18 -14 -68 -9 -79 8 -6 9 -9 10 -9 2 0 -6 4 -14 9 -18 6 -3 9 -14 8 -25
-1 -10 -3 -17 -5 -15 -3 2 -14 0 -25 -6 -14 -8 -18 -8 -13 0 4 6 2 11 -3 11
-6 0 -10 5 -9 12 2 7 -1 12 -7 13 -5 0 -15 3 -21 7 -6 4 -14 5 -17 2 -8 -8 3
-34 15 -34 5 0 7 4 4 8 -3 5 1 9 9 9 11 0 12 -4 4 -14 -8 -9 -8 -13 0 -13 6 0
11 -4 11 -10 0 -18 -57 24 -69 52 -7 16 -16 27 -19 24 -2 -3 1 -13 9 -22 13
-16 12 -16 -8 -6 -28 15 -36 15 -27 0 4 -7 3 -8 -5 -4 -6 4 -9 11 -6 16 3 5
-4 14 -15 20 -21 11 -21 11 -5 -20 11 -21 12 -29 4 -24 -9 5 -11 2 -6 -12 7
-19 7 -19 -8 0 -8 10 -13 22 -10 25 2 4 -5 12 -16 19 -11 7 -19 8 -19 2 0 -5
6 -10 13 -10 8 0 7 -4 -3 -10 -8 -5 -10 -10 -4 -10 7 0 15 -8 19 -17 4 -12 -5
-8 -24 11 -21 20 -36 27 -51 23 -20 -5 -21 -4 -5 19 8 13 11 24 6 24 -5 0 -11
-7 -15 -15 -3 -8 -12 -12 -21 -9 -8 3 -15 2 -15 -3 0 -5 -16 -10 -35 -10 -19
0 -35 4 -35 8 0 4 9 6 19 4 14 -3 18 1 14 11 -6 16 -19 18 -27 6 -8 -14 -56
-8 -66 8 -6 9 -10 10 -10 3z m-38 -32 c8 11 9 11 6 1 -4 -16 -22 -18 -24 -3
-2 8 -1 7 3 0 4 -8 8 -7 15 2z m78 -5 c0 -8 -7 -16 -15 -20 -12 -4 -13 -2 -2
14 14 24 17 25 17 6z m600 10 c0 -2 -8 -10 -17 -17 -16 -13 -17 -12 -4 4 13
16 21 21 21 13z m-861 -35 c14 -1 7 -16 -7 -16 -4 0 -12 -3 -17 -7 -15 -9 -39
7 -31 20 3 6 14 9 24 7 9 -2 23 -4 31 -4z m261 -31 c0 -5 -2 -10 -4 -10 -3 0
-8 5 -11 10 -3 6 -1 10 4 10 6 0 11 -4 11 -10z m790 -6 c0 -2 -7 -4 -15 -4 -8
0 -15 4 -15 10 0 5 7 7 15 4 8 -4 15 -8 15 -10z m-1022 -29 c-3 -3 -9 2 -12
12 -6 14 -5 15 5 6 7 -7 10 -15 7 -18z m472 21 c0 -3 -4 -8 -10 -11 -5 -3 -10
-1 -10 4 0 6 5 11 10 11 6 0 10 -2 10 -4z m210 0 c0 -2 -7 -7 -16 -10 -8 -3
-12 -2 -9 4 6 10 25 14 25 6z m286 -48 c3 -4 -1 -5 -10 -4 -8 1 -18 5 -22 8
-3 4 1 5 10 4 8 -1 18 -5 22 -8z m210 -27 c-3 -5 1 -14 9 -21 19 -16 19 -34 0
-50 -18 -15 -20 0 -2 19 10 11 9 13 -5 8 -13 -4 -16 -1 -13 14 3 15 0 19 -10
15 -8 -3 -15 -1 -15 4 0 5 8 11 18 13 9 3 18 5 20 6 2 0 1 -3 -2 -8z m-1186
-11 c0 -5 -2 -10 -4 -10 -3 0 -8 5 -11 10 -3 6 -1 10 4 10 6 0 11 -4 11 -10z
m415 1 c3 -5 2 -12 -3 -15 -5 -3 -9 1 -9 9 0 17 3 19 12 6z m-524 -43 c-10
-11 -11 -9 -5 6 6 15 4 17 -6 11 -9 -6 -11 -4 -5 4 5 9 10 10 18 2 8 -8 7 -14
-2 -23z m404 23 c3 -5 2 -12 -3 -15 -5 -3 -9 1 -9 9 0 17 3 19 12 6z m82 -6
c0 -8 -4 -12 -9 -9 -5 3 -6 10 -3 15 9 13 12 11 12 -6z m163 -27 c0 -15 -15
-8 -28 12 -12 19 -11 20 8 8 11 -7 20 -16 20 -20z m39 -4 c-9 -11 -7 -15 5
-20 9 -3 16 -10 16 -16 0 -5 -4 -6 -10 -3 -5 3 -10 1 -10 -5 0 -6 -4 -9 -8 -6
-5 3 -9 -1 -9 -9 0 -18 14 -20 19 -4 2 6 16 13 31 14 15 2 25 0 22 -5 -3 -4 7
-15 21 -25 26 -16 26 -16 19 7 -5 18 -4 20 4 8 6 -8 11 -11 11 -6 0 5 9 1 19
-8 11 -10 25 -15 32 -10 8 5 10 3 4 -7 -6 -11 -5 -11 4 -3 10 9 10 17 1 34 -6
12 -9 24 -6 28 3 3 6 0 6 -8 0 -10 3 -10 15 0 8 7 15 9 15 5 0 -4 12 0 28 9
l27 17 -22 -19 c-12 -11 -19 -22 -16 -26 4 -3 14 0 22 8 17 15 53 5 38 -11 -5
-4 -12 -1 -16 6 -6 9 -11 10 -15 2 -4 -6 -5 -15 -2 -19 2 -4 -4 -8 -14 -8 -10
0 -16 5 -13 11 4 5 3 7 -2 3 -4 -4 -14 -3 -22 3 -8 8 -13 8 -13 1 0 -6 6 -12
13 -15 18 -7 -14 -38 -41 -40 -12 -1 -25 -9 -28 -19 -6 -19 -24 -25 -24 -8 0
6 5 10 10 10 6 0 10 4 10 8 0 5 -7 9 -15 9 -14 0 -19 -10 -16 -30 1 -4 -7 -3
-18 3 -27 14 -31 13 -25 -7 5 -14 4 -15 -4 -4 -6 8 -12 9 -16 3 -3 -6 -15 -8
-26 -5 -16 4 -19 2 -14 -11 3 -9 11 -13 17 -9 6 4 7 1 2 -7 -7 -11 -12 -9 -23
8 -11 17 -18 19 -33 11 -10 -5 -19 -7 -19 -3 0 4 -9 -1 -21 -12 -15 -14 -20
-15 -17 -4 2 8 -2 14 -7 13 -6 -1 -12 8 -12 19 -2 21 -2 21 13 -1 12 -16 19
-19 28 -12 7 6 17 7 22 3 5 -4 1 2 -9 14 -9 11 -14 23 -11 27 8 8 -35 29 -46
22 -5 -3 -7 -12 -4 -20 5 -12 -5 -13 -34 -6 -1 1 2 7 8 14 5 6 19 23 31 37 14
17 22 21 25 13 8 -18 21 -16 21 2 0 8 -4 12 -8 9 -4 -2 -9 1 -11 8 -2 6 -19
-7 -38 -31 l-34 -42 -13 23 -14 23 6 -22 c5 -17 3 -21 -8 -18 -13 6 -20 35 -7
35 3 0 6 9 7 20 1 11 -2 18 -8 15 -5 -4 -9 -1 -9 4 0 12 1 12 37 16 12 1 20
-1 17 -6 -2 -4 -12 -5 -22 -2 -15 6 -15 5 -3 -10 7 -9 18 -14 24 -10 5 3 7 1
3 -5 -3 -6 -3 -13 2 -16 11 -6 43 30 34 39 -4 4 0 5 8 3 8 -1 15 3 16 10 1 6
2 18 3 25 1 8 4 7 11 -3 5 -8 10 -11 10 -6 0 5 7 3 15 -4 12 -10 18 -10 30 0
8 7 15 9 15 6 0 -4 5 -4 10 -1 8 5 7 12 -2 23 -12 15 -11 16 5 3 13 -10 15
-17 6 -27z m496 26 c-3 -5 -12 -10 -18 -10 -7 0 -6 4 3 10 19 12 23 12 15 0z
m-813 -17 c-6 -2 -9 -10 -6 -15 4 -7 2 -8 -5 -4 -13 9 -5 26 12 25 9 0 8 -2
-1 -6z m-337 -11 c-7 -8 15 -42 27 -42 9 0 9 3 0 12 -7 7 -12 16 -12 22 0 5 6
1 14 -10 9 -12 11 -23 5 -28 -16 -17 -10 -25 19 -20 20 3 23 2 12 -6 -8 -5
-12 -10 -7 -10 28 0 57 -17 56 -33 0 -9 -2 -9 -6 1 -7 19 -23 14 -17 -5 5 -16
4 -16 -8 -3 -14 17 -32 20 -44 8 -4 -5 0 -8 8 -8 9 0 21 -6 27 -13 8 -10 7
-14 -4 -14 -8 0 -12 4 -9 9 3 4 -2 8 -11 8 -8 0 -18 -7 -21 -15 -6 -14 -8 -14
-19 1 -11 15 -12 15 -18 -7 -3 -13 -9 -20 -13 -16 -3 3 3 22 14 41 19 32 19
37 5 44 -14 8 -14 11 0 23 13 12 13 17 -4 40 -14 21 -15 26 -3 26 7 0 12 -2 9
-5z m299 -7 c-9 -23 3 -45 21 -39 8 3 12 10 9 15 -3 5 3 6 12 2 10 -4 15 -2
11 3 -3 6 -2 16 4 24 6 11 9 12 9 2 0 -7 5 -10 12 -6 6 4 8 3 4 -4 -3 -6 -1
-14 5 -18 8 -4 7 -9 -2 -15 -11 -7 -11 -9 -1 -9 7 0 10 -5 7 -10 -4 -6 -12 -4
-21 5 -9 8 -21 15 -27 14 -8 0 -8 -2 1 -6 6 -2 10 -8 8 -12 -3 -4 -1 -13 3
-20 7 -11 13 -10 33 3 14 9 28 13 33 9 4 -5 5 0 2 10 -4 10 -3 16 2 12 13 -7
9 -46 -4 -41 -5 2 -25 -5 -42 -16 -29 -17 -33 -17 -33 -4 0 9 -5 16 -10 16 -7
0 -7 -6 0 -20 10 -18 7 -24 -12 -21 -4 0 -5 -6 -1 -15 5 -14 3 -15 -14 -6 -11
6 -22 9 -25 7 -2 -2 -10 5 -17 17 -12 19 -11 20 6 14 31 -12 38 -12 39 4 1 8
2 21 3 28 0 7 5 11 9 8 5 -3 9 1 9 9 0 8 -4 15 -9 15 -4 0 -8 -6 -8 -12 0 -9
-4 -8 -11 2 -8 11 -9 9 -3 -10 6 -23 5 -24 -10 -11 -15 12 -17 12 -14 0 2 -9
-5 -13 -19 -12 -24 3 -31 -11 -13 -22 8 -5 7 -11 -1 -21 -11 -13 -2 -19 24
-15 4 0 7 -5 7 -11 0 -9 4 -8 10 2 7 11 10 11 10 2 0 -7 4 -10 10 -7 6 4 7 -1
4 -12 -4 -13 -3 -15 4 -5 5 8 13 14 18 14 5 0 8 5 6 10 -3 13 17 38 30 38 6 0
5 -7 -2 -15 -14 -17 -8 -31 9 -20 6 3 9 11 6 16 -4 5 -1 9 4 9 6 0 11 -4 11
-10 0 -5 4 -10 9 -10 4 0 8 10 7 23 -1 17 4 21 19 19 46 -6 68 -19 59 -34 -4
-6 -10 -6 -16 0 -11 11 -50 4 -43 -9 3 -4 11 -7 18 -5 7 1 9 1 4 -1 -4 -3 -4
-10 0 -16 4 -7 -1 -6 -10 2 -9 7 -17 10 -17 7 0 -4 -9 -2 -20 4 -14 7 -20 7
-20 0 0 -5 -9 -10 -19 -10 -14 0 -19 -6 -16 -20 2 -11 -1 -20 -7 -20 -5 0 -8
7 -5 14 4 10 1 13 -8 9 -12 -4 -12 -10 -3 -26 6 -12 7 -19 3 -15 -4 4 -14 0
-22 -10 -13 -15 -14 -15 -9 0 5 17 -16 42 -27 32 -4 -4 -4 3 -2 16 3 15 0 20
-10 17 -7 -3 -21 5 -30 20 -12 17 -23 23 -37 20 -11 -3 -17 -3 -14 0 3 4 1 12
-6 20 -8 10 -8 17 1 26 10 9 11 8 6 -8 -6 -19 -6 -19 8 -3 8 10 17 15 20 11
10 -10 8 -25 -2 -18 -5 3 -13 0 -16 -6 -5 -7 0 -9 11 -7 13 3 18 11 16 27 -2
18 2 21 18 16 16 -5 19 -3 14 12 -5 14 -4 15 4 4 9 -12 13 -12 26 -2 8 7 12
19 9 27 -5 14 2 44 11 44 3 0 3 -7 0 -15z m-199 -35 c3 -6 -1 -7 -9 -4 -18 7
-21 14 -7 14 6 0 13 -4 16 -10z m915 4 c0 -8 -19 -13 -24 -6 -3 5 1 9 9 9 8 0
15 -2 15 -3z m-206 -33 c-2 -3 -12 3 -22 13 -16 17 -16 18 5 5 12 -7 20 -15
17 -18z m197 9 c16 9 24 8 38 -4 14 -13 20 -13 30 -3 11 10 11 8 3 -9 -6 -12
-9 -32 -7 -46 4 -22 1 -25 -20 -25 -14 0 -28 4 -31 9 -3 5 -12 4 -20 -3 -7 -6
-11 -15 -8 -20 3 -5 0 -9 -5 -9 -15 0 -14 13 2 29 10 11 9 13 -6 8 -14 -5 -16
-3 -8 12 10 18 6 31 -10 31 -5 0 -6 -7 -3 -15 4 -8 1 -15 -6 -15 -6 0 -8 -6
-4 -12 4 -7 3 -9 -1 -5 -11 10 -16 39 -6 32 4 -2 8 2 8 9 0 12 -6 13 -36 7 -2
-1 3 -8 10 -18 12 -14 12 -16 -1 -11 -8 2 -15 16 -15 30 -1 16 4 24 11 21 7
-2 15 0 19 6 4 8 12 8 26 1 13 -8 25 -7 40 0z m-874 -32 c2 -18 0 -20 -7 -8
-12 18 -13 30 -2 30 4 0 9 -10 9 -22z m763 -2 c0 -8 10 -22 22 -30 12 -9 18
-19 14 -23 -5 -5 -11 -2 -13 5 -3 6 -9 9 -14 6 -6 -4 -6 -11 1 -19 8 -10 8
-15 -1 -21 -7 -4 -9 -3 -5 4 3 6 -3 17 -15 25 -20 14 -20 16 -2 26 10 6 12 11
6 11 -15 0 -18 30 -3 30 6 0 10 -6 10 -14z m-590 -16 c0 -5 -7 -7 -15 -4 -8 4
-12 10 -9 15 6 11 24 2 24 -11z m101 7 c-6 -8 -8 -17 -4 -21 4 -4 -1 -4 -11 0
-18 7 -18 8 0 21 23 17 30 17 15 0z m456 -19 c-6 -3 -14 -5 -18 -2 -4 2 -9 -3
-12 -10 -3 -8 -15 -14 -26 -13 -11 0 -18 5 -15 9 3 4 12 4 21 1 10 -4 14 -2 9
5 -3 6 3 13 14 17 11 3 20 12 20 18 0 7 4 6 10 -3 6 -9 5 -17 -3 -22z m-307
12 c8 -5 11 -10 6 -10 -5 0 -3 -7 4 -15 10 -12 10 -15 -2 -15 -8 0 -20 11 -26
25 -12 26 -7 31 18 15z m-404 -9 c-4 -5 -1 -11 6 -13 8 -3 6 -6 -4 -10 -11 -5
-15 -2 -13 10 5 23 4 22 11 22 3 0 3 -4 0 -9z m-184 -19 c-7 -2 -9 -9 -6 -14
4 -6 2 -8 -4 -4 -5 3 -13 0 -16 -6 -3 -10 -1 27 3 39 1 1 9 -1 18 -4 11 -4 13
-8 5 -11z m1294 -19 c0 -21 -1 -32 -3 -25 -3 6 -8 10 -12 8 -4 -3 -6 7 -5 22
2 32 2 32 12 32 4 0 7 -17 8 -37z m-1342 6 c-3 -5 -10 -7 -15 -3 -5 3 -7 10
-3 15 3 5 10 7 15 3 5 -3 7 -10 3 -15z m585 -10 c-24 -15 -30 -10 -11 9 9 10
19 14 21 9 2 -5 -3 -13 -10 -18z m371 -1 c0 -7 -5 -6 -13 1 -8 6 -18 7 -22 3
-5 -4 -5 -2 -1 5 8 14 36 6 36 -9z m-1017 1 c7 -1 1 -4 -13 -8 -29 -9 -43 -4
-34 10 3 6 13 8 21 5 8 -3 20 -6 26 -7z m354 5 c-3 -3 -12 -4 -19 -1 -8 3 -5
6 6 6 11 1 17 -2 13 -5z m1097 -54 c-6 -6 -10 -2 -11 12 -2 16 1 18 10 9 7 -7
8 -14 1 -21z m-1294 -80 c0 -5 -2 -10 -4 -10 -3 0 -8 5 -11 10 -3 6 -1 10 4
10 6 0 11 -4 11 -10z m1246 -2 c4 -7 4 -10 -1 -6 -4 4 -14 0 -22 -10 -13 -15
-13 -15 -3 6 12 25 16 27 26 10z m34 8 c0 -3 -4 -8 -10 -11 -5 -3 -10 -1 -10
4 0 6 5 11 10 11 6 0 10 -2 10 -4z m-1257 -21 c-3 -9 -8 -14 -10 -11 -3 3 -2
9 2 15 9 16 15 13 8 -4z m52 5 c-3 -5 1 -10 10 -10 9 0 13 5 10 10 -10 16 1
11 16 -7 8 -10 9 -14 2 -10 -6 4 -15 3 -18 -3 -4 -7 -11 -7 -18 -2 -7 5 -20 8
-30 7 -9 -2 -15 1 -11 6 3 5 10 7 15 4 5 -4 9 -1 9 4 0 6 5 11 11 11 5 0 7 -4
4 -10z m422 -5 c0 -8 -5 -15 -11 -15 -6 0 -4 -5 4 -10 8 -5 10 -10 4 -10 -18
0 -24 12 -13 31 12 23 16 24 16 4z m343 5 c0 -5 -2 -10 -4 -10 -3 0 -8 5 -11
10 -3 6 -1 10 4 10 6 0 11 -4 11 -10z m17 -12 c-3 -8 -6 -5 -6 6 -1 11 2 17 5
13 3 -3 4 -12 1 -19z m353 18 c0 -2 -6 -9 -14 -15 -11 -9 -16 -9 -22 0 -4 7
-3 9 4 5 6 -3 13 -2 17 4 6 10 15 14 15 6z"/>
<path d="M526 718 c3 -5 10 -6 15 -3 13 9 11 12 -6 12 -8 0 -12 -4 -9 -9z"/>
<path d="M1073 524 c0 -8 4 -14 9 -14 4 0 8 5 8 11 0 5 4 8 10 4 5 -3 7 -13 4
-23 -5 -14 -4 -15 5 -2 10 13 12 13 22 0 9 -13 10 -12 5 2 -3 10 -1 20 4 23 6
4 10 1 10 -4 0 -6 5 -11 11 -11 8 0 8 5 -1 15 -9 11 -16 12 -26 4 -7 -6 -19
-7 -26 -3 -21 14 -35 13 -35 -2z"/>
<path d="M982 470 c12 -19 28 -27 28 -14 0 7 -27 34 -34 34 -4 0 -1 -9 6 -20z"/>
<path d="M1188 473 c-7 -9 -8 -14 -2 -10 14 8 35 -15 26 -28 -4 -6 -16 -11
-27 -13 -20 -3 -20 -2 -1 13 11 8 15 15 9 15 -6 0 -16 -7 -23 -15 -7 -8 -9
-15 -4 -15 4 0 -1 -7 -12 -16 -18 -15 -18 -15 3 -5 29 14 36 14 27 -1 -4 -7 2
-5 14 5 11 11 26 16 32 12 11 -7 29 10 30 26 0 3 -13 15 -29 27 -27 20 -30 20
-43 5z m59 -36 c-1 -5 -6 -8 -10 -8 -4 1 -6 3 -4 5 1 2 -7 14 -18 27 l-20 23
27 -20 c15 -10 26 -23 25 -27z"/>
<path d="M1116 467 c3 -10 9 -15 12 -12 3 3 0 11 -7 18 -10 9 -11 8 -5 -6z"/>
<path d="M1285 460 c3 -5 1 -10 -4 -10 -6 0 -11 -4 -11 -8 0 -4 11 -8 25 -8
23 0 23 1 8 18 -17 20 -28 24 -18 8z"/>
<path d="M1096 447 c3 -10 9 -15 12 -12 3 3 0 11 -7 18 -10 9 -11 8 -5 -6z"/>
<path d="M1130 420 c0 -5 -6 -8 -12 -6 -7 1 -10 1 -5 -1 4 -3 5 -9 1 -14 -3
-5 -1 -9 3 -9 5 0 14 9 21 20 7 12 8 20 2 20 -5 0 -10 -4 -10 -10z"/>
<path d="M549 465 c-1 -3 -2 -10 -3 -15 0 -6 -6 -14 -13 -18 -7 -5 -9 -13 -4
-21 6 -9 11 -10 15 -2 4 6 4 11 0 11 -3 0 -1 7 6 15 7 8 17 12 24 8 6 -4 5 1
-3 10 -14 17 -20 21 -22 12z"/>
<path d="M873 515 c0 -8 4 -15 9 -15 4 0 8 4 8 9 0 6 -4 12 -8 15 -5 3 -9 -1
-9 -9z"/>
<path d="M736 421 c-4 -5 -2 -12 3 -15 5 -4 12 -2 15 3 4 5 2 12 -3 15 -5 4
-12 2 -15 -3z"/>
<path d="M933 415 c0 -8 4 -12 9 -9 4 3 8 9 8 15 0 5 -4 9 -8 9 -5 0 -9 -7 -9
-15z"/>
<path d="M796 362 c-3 -5 3 -17 14 -27 23 -21 26 -9 6 18 -8 10 -17 14 -20 9z"/>
<path d="M1454 468 c-4 -7 -3 -10 1 -5 5 4 19 0 33 -9 13 -9 21 -11 18 -5 -13
21 -44 32 -52 19z"/>
<path d="M1527 472 c-10 -2 -16 -10 -14 -17 3 -7 0 -18 -6 -24 -6 -6 -8 -12
-4 -12 14 -3 27 -7 30 -9 1 -1 12 -4 24 -5 17 -2 20 2 17 19 -2 11 -8 22 -14
24 -6 2 -8 8 -5 12 7 12 -6 17 -28 12z m19 -11 c-3 -5 1 -14 9 -21 18 -15 10
-31 -10 -24 -9 4 -13 15 -11 27 6 28 5 27 12 27 3 0 3 -4 0 -9z"/>
<path d="M1326 774 c-3 -9 -4 -19 -1 -22 3 -3 5 1 5 9 0 11 2 11 10 -1 5 -8
10 -10 10 -5 0 6 -4 16 -9 23 -6 11 -10 10 -15 -4z"/>
<path d="M1476 777 c3 -10 9 -15 12 -12 3 3 0 11 -7 18 -10 9 -11 8 -5 -6z"/>
<path d="M1003 772 c-9 -5 -6 -12 10 -21 19 -13 21 -12 10 1 -7 8 -10 18 -6
21 9 9 1 8 -14 -1z"/>
<path d="M435 761 c-3 -5 -2 -12 3 -15 5 -3 9 1 9 9 0 17 -3 19 -12 6z"/>
<path d="M622 754 c-11 -12 -9 -13 10 -10 13 3 25 5 28 6 3 2 8 2 13 1 4 0 7
3 7 8 0 14 -44 10 -58 -5z"/>
<path d="M1295 760 c3 -5 8 -10 11 -10 2 0 4 5 4 10 0 6 -5 10 -11 10 -5 0 -7
-4 -4 -10z"/>
<path d="M1457 757 c-3 -8 1 -14 8 -14 7 0 11 6 8 14 -3 7 -6 13 -8 13 -2 0
-5 -6 -8 -13z"/>
<path d="M1635 761 c-3 -5 -2 -12 3 -15 5 -3 9 1 9 9 0 17 -3 19 -12 6z"/>
<path d="M1696 757 c3 -10 9 -15 12 -12 3 3 0 11 -7 18 -10 9 -11 8 -5 -6z"/>
<path d="M1247 744 c7 -3 9 -12 6 -20 -5 -14 8 -19 20 -7 9 8 -12 33 -27 32
-7 0 -7 -2 1 -5z"/>
<path d="M1714 525 c0 -13 3 -22 7 -20 3 3 14 -4 23 -14 12 -14 14 -20 5 -23
-7 -2 -14 -15 -16 -29 -2 -18 -1 -20 6 -9 5 8 7 18 5 22 -3 4 2 8 10 8 22 0
20 12 -6 40 -13 14 -23 28 -23 31 0 4 -2 10 -5 13 -4 3 -6 -5 -6 -19z"/>
<path d="M399 540 c0 -3 -2 -13 -4 -23 -2 -11 -1 -16 2 -13 4 3 13 0 21 -7 13
-9 14 -9 8 1 -4 6 -3 12 2 12 6 0 13 7 16 16 5 13 4 14 -7 6 -10 -9 -17 -8
-25 0 -7 7 -12 10 -13 8z"/>
<path d="M1600 515 c-7 -9 -8 -15 -2 -15 5 0 12 7 16 15 3 8 4 15 2 15 -2 0
-9 -7 -16 -15z"/>
<path d="M313 495 c0 -8 4 -12 9 -9 5 3 6 10 3 15 -9 13 -12 11 -12 -6z"/>
<path d="M1700 482 c0 -5 7 -9 15 -9 8 0 15 4 15 9 0 4 -7 8 -15 8 -8 0 -15
-4 -15 -8z"/>
<path d="M326 462 c-3 -5 1 -9 9 -9 8 0 12 4 9 9 -3 4 -7 8 -9 8 -2 0 -6 -4
-9 -8z"/>
<path d="M470 452 c6 -13 14 -21 18 -18 3 4 -2 14 -12 24 -18 16 -18 16 -6 -6z"/>
<path d="M1617 463 c-3 -5 5 -8 18 -8 13 0 21 3 18 8 -2 4 -10 7 -18 7 -8 0
-16 -3 -18 -7z"/>
<path d="M1790 439 c0 -5 5 -7 10 -4 6 3 10 8 10 11 0 2 -4 4 -10 4 -5 0 -10
-5 -10 -11z"/>
<path d="M1625 422 c-14 -10 -19 -46 -6 -37 6 3 11 13 11 21 0 8 5 12 10 9 6
-3 10 -1 10 4 0 13 -11 14 -25 3z"/>
<path d="M1690 418 c0 -4 -3 -7 -7 -5 -5 1 -10 -2 -13 -7 -3 -6 7 -11 21 -11
14 -1 31 -5 37 -9 8 -5 10 -2 6 8 -3 9 -11 13 -17 9 -6 -4 -8 0 -5 9 4 9 0 15
-8 15 -8 0 -14 -4 -14 -9z"/>
<path d="M1805 420 c-3 -5 -2 -18 4 -27 7 -14 9 -12 8 10 -2 30 -3 31 -12 17z"/>
<path d="M1855 300 c-3 -5 -1 -10 4 -10 6 0 11 5 11 10 0 6 -2 10 -4 10 -3 0
-8 -4 -11 -10z"/>
<path d="M280 255 c-7 -9 -11 -17 -9 -20 3 -2 10 5 17 15 14 24 10 26 -8 5z"/>
<path d="M850 225 c-11 -13 -10 -14 4 -9 9 3 16 10 16 15 0 13 -6 11 -20 -6z"/>
<path d="M1115 230 c-3 -5 -1 -10 4 -10 6 0 11 5 11 10 0 6 -2 10 -4 10 -3 0
-8 -4 -11 -10z"/>
<path d="M1479 237 c-6 -9 -4 -47 2 -47 5 0 9 6 9 13 0 7 9 13 21 14 18 2 19
0 7 -15 -9 -13 -7 -12 10 2 20 17 27 15 23 -7 -1 -5 4 -5 10 -2 12 8 -2 27
-23 31 -7 2 -23 5 -35 8 -13 3 -24 4 -24 3z"/>
<path d="M1611 226 c-18 -24 -20 -33 -7 -33 9 0 12 7 8 16 -4 12 0 11 19 -4
13 -11 18 -13 12 -4 -9 10 -9 19 -2 26 6 6 5 10 -6 10 -8 0 -19 -5 -24 -11z"/>
<path d="M1430 219 c0 -5 5 -7 10 -4 13 8 13 -7 0 -23 -5 -7 -3 -6 6 2 9 8 13
19 10 25 -9 14 -26 14 -26 0z"/>
<path d="M1214 201 c0 -11 4 -17 8 -15 4 3 8 12 8 20 0 8 -4 14 -8 14 -4 0 -8
-9 -8 -19z"/>
<path d="M1764 204 c-18 -14 -18 -15 4 -4 12 6 22 13 22 15 0 8 -5 6 -26 -11z"/>
<path d="M420 202 c0 -5 7 -9 15 -9 8 0 12 4 9 9 -3 4 -9 8 -15 8 -5 0 -9 -4
-9 -8z"/>
<path d="M750 199 c0 -5 5 -7 10 -4 6 3 10 8 10 11 0 2 -4 4 -10 4 -5 0 -10
-5 -10 -11z"/>
</g>
</svg>
